<svg xmlns="http://www.w3.org/2000/svg" width="68" height="68" viewBox="0 0 68 68" fill="none"><path d="M1.02802 55.9521L1.02701 56.0291L1 67.0611L10.522 67.0851L10.874 67.0861L20.396 67.1101L20.424 56.0011L11.607 55.9791L11.635 47.4081L1.05499 47.3811L1.02802 55.9521Z" stroke="#525252" stroke-miterlimit="10"></path><path d="M16.1281 40.851V40.928L16.1011 51.96L25.6231 51.984L25.9751 51.985L35.4971 52.009L35.5251 40.9L26.7081 40.878L26.7361 32.307L16.1561 32.281L16.1281 40.851Z" stroke="#525252" stroke-miterlimit="10"></path><path d="M32.308 24.6711V24.7491L32.28 35.7801L41.802 35.8041L42.155 35.8051L51.677 35.8291L51.705 24.7201L42.888 24.6981L42.916 16.1281L32.336 16.1011L32.308 24.6711Z" stroke="#525252" stroke-miterlimit="10"></path><path d="M47.4089 9.571V9.64799L47.3809 20.679L56.9029 20.703L57.2559 20.704L66.7779 20.728L66.8049 9.619L57.9889 9.597L58.0169 1.02699L47.4369 1L47.4089 9.571Z" stroke="#525252" stroke-miterlimit="10"></path></svg>