<svg xmlns="http://www.w3.org/2000/svg" width="68" height="68" viewBox="0 0 68 68" fill="none"><path d="M12.0479 1.02801L11.9709 1.02701L0.938904 0.999999L0.914901 10.522L0.913894 10.874L0.889892 20.396L11.9989 20.424L12.0209 11.607L20.5919 11.635L20.6189 1.05499L12.0479 1.02801Z" stroke="#525252" stroke-miterlimit="10"></path><path d="M27.149 16.1281L27.072 16.1281L16.04 16.1011L16.016 25.6231L16.015 25.9751L15.991 35.4971L27.1 35.5251L27.122 26.7081L35.693 26.7361L35.719 16.1561L27.149 16.1281Z" stroke="#525252" stroke-miterlimit="10"></path><path d="M43.3289 32.308L43.2509 32.308L32.2199 32.28L32.1959 41.802L32.1949 42.155L32.1709 51.677L43.2799 51.705L43.3019 42.888L51.8719 42.916L51.8989 32.336L43.3289 32.308Z" stroke="#525252" stroke-miterlimit="10"></path><path d="M58.429 47.4089L58.352 47.4089L47.321 47.3809L47.297 56.9029L47.296 57.2559L47.272 66.7779L58.381 66.8049L58.403 57.9889L66.973 58.0169L67 47.4369L58.429 47.4089Z" stroke="#525252" stroke-miterlimit="10"></path></svg>