<svg xmlns="http://www.w3.org/2000/svg" width="18" height="18" viewBox="0 0 18 18" fill="none"><circle opacity="0.1" cx="9.17851" cy="8.82584" r="8.43571" fill="url(#paint0_linear_120_757)"></circle><g clip-path="url(#clip0_120_757)"><path d="M14.0008 5.20383C13.6825 4.88551 13.1665 4.88551 12.8482 5.20383L7.33398 10.72L5.50712 8.89313C5.1888 8.57481 4.67278 8.57481 4.35446 8.89313C4.03614 9.21145 4.03614 9.72747 4.35446 10.0458L6.75666 12.448C7.01962 12.7109 7.4269 12.7624 7.7472 12.5745C7.75906 12.5666 7.77092 12.5607 7.78081 12.5528C7.82628 12.5231 7.86978 12.4875 7.90932 12.448L14.0008 6.35649C14.3191 6.03817 14.3191 5.52214 14.0008 5.20383Z" fill="url(#paint1_linear_120_757)"></path></g><defs><linearGradient id="paint0_linear_120_757" x1="0.742798" y1="12.954" x2="19.5852" y2="12.954" gradientUnits="userSpaceOnUse"><stop stop-color="#BB6FFB"></stop><stop offset="0.520757" stop-color="#FC5F67"></stop><stop offset="1" stop-color="#FFB054"></stop></linearGradient><linearGradient id="paint1_linear_120_757" x1="4.11572" y1="10.7153" x2="15.4223" y2="10.7153" gradientUnits="userSpaceOnUse"><stop stop-color="#BB6FFB"></stop><stop offset="0.520757" stop-color="#FC5F67"></stop><stop offset="1" stop-color="#FFB054"></stop></linearGradient><clipPath id="clip0_120_757"><path d="M4.11707 13.8873C4.11707 8.29656 8.64922 3.7644 14.2399 3.7644C14.2399 9.3551 9.70776 13.8873 4.11707 13.8873Z" fill="white"></path></clipPath></defs></svg>